<?xml version="1.0" encoding="iso-8859-1"?>
<!-- Generator: Adobe Illustrator 19.0.0, SVG Export Plug-In . SVG Version: 6.00 Build 0)  -->
<svg version="1.1" id="Layer_1" xmlns="http://www.w3.org/2000/svg" xmlns:xlink="http://www.w3.org/1999/xlink" x="0px" y="0px"
	 viewBox="0 0 503.467 503.467" style="enable-background:new 0 0 503.467 503.467;" xml:space="preserve">
<g transform="translate(1 9)">
	<path style="fill:#ffce00;" d="M310.467,387.8c0,9.387-8.533,25.6-17.067,34.133c0,0-17.067,17.067-42.667,17.067
		s-42.667-17.067-42.667-17.067C199.533,413.4,191,397.187,191,387.8c0-59.733,42.667-59.733,59.733-102.4
		C293.4,311,310.467,345.133,310.467,387.8"/>
	<g>
		<path style="fill:#401201;" d="M464.067,148.867v307.2h-51.2v-34.133V362.2c0-89.6-72.533-162.133-162.133-162.133
			S88.6,272.6,88.6,362.2v25.6v68.267H37.4V114.733h426.667V148.867L464.067,148.867z"/>
		<path style="fill:#401201;" d="M498.2,46.467v51.2c0,9.387-7.68,17.067-17.067,17.067h-17.067H37.4H20.333
			c-9.387,0-17.067-7.68-17.067-17.067v-51.2c0-9.387,7.68-17.067,17.067-17.067h460.8C490.52,29.4,498.2,37.08,498.2,46.467
			L498.2,46.467z"/>
	</g>
	<path style="fill:#262729;" d="M250.733,439c25.6,0,42.667-17.067,42.667-17.067c8.533-8.533,17.067-24.747,17.067-34.133
		c0-42.667-17.067-76.8-59.733-102.4C233.667,328.067,191,328.067,191,387.8c0,9.387,8.533,25.6,17.067,34.133
		C208.067,421.933,225.133,439,250.733,439L250.733,439z M412.867,456.067H88.6V387.8v-25.6c0-89.6,72.533-162.133,162.133-162.133
		S412.867,272.6,412.867,362.2v59.733V456.067z"/>
</g>
<path style="fill:#0D0D0D;" d="M499.2,469.333H4.267c-2.56,0-4.267-1.707-4.267-4.267c0-2.56,1.707-4.267,4.267-4.267h29.867V128
	h-12.8C9.387,128,0,118.613,0,106.667v-51.2C0,43.52,9.387,34.133,21.333,34.133h460.8c11.947,0,21.333,9.387,21.333,21.333v51.2
	c0,11.947-9.387,21.333-21.333,21.333h-409.6c-2.56,0-4.267-1.707-4.267-4.267c0-2.56,1.707-4.267,4.267-4.267h409.6
	c6.827,0,12.8-5.973,12.8-12.8v-51.2c0-6.827-5.973-12.8-12.8-12.8h-460.8c-6.827,0-12.8,5.973-12.8,12.8v51.2
	c0,6.827,5.973,12.8,12.8,12.8H38.4c2.56,0,4.267,1.707,4.267,4.267V460.8h42.667v-59.733h-12.8c-2.56,0-4.267-1.707-4.267-4.267
	s1.707-4.267,4.267-4.267h12.8V371.2c0-92.16,74.24-166.4,166.4-166.4s166.4,74.24,166.4,166.4v55.467h12.8
	c2.56,0,4.267,1.707,4.267,4.267c0,2.56-1.707,4.267-4.267,4.267h-12.8v25.6H460.8V162.133h-38.4c-2.56,0-4.267,1.707-4.267,4.267
	v34.133c0,2.56,1.707,4.267,4.267,4.267h8.533c2.56,0,4.267,1.707,4.267,4.267c0,2.56-1.707,4.267-4.267,4.267H422.4
	c-6.827,0-12.8-5.973-12.8-12.8V166.4c0-6.827,5.973-12.8,12.8-12.8h42.667c2.56,0,4.267,1.707,4.267,4.267V460.8H499.2
	c2.56,0,4.267,1.707,4.267,4.267C503.467,467.627,501.76,469.333,499.2,469.333z M93.867,460.8H409.6v-89.6
	c0-87.04-70.827-157.867-157.867-157.867S93.867,284.16,93.867,371.2V460.8z M294.4,435.2c-0.853,0-2.56,0-3.413-0.853
	c-1.707-1.707-1.707-4.267,0-5.973c7.68-7.68,16.213-23.04,16.213-30.72c0-41.813-17.067-72.533-53.76-96.427
	c-6.827,15.36-17.067,24.747-27.307,34.133c-16.213,15.36-29.867,28.16-29.867,62.293c0,7.68,7.68,23.04,16.213,30.72
	c1.707,1.707,1.707,4.267,0,5.973c-1.707,1.707-4.267,1.707-5.973,0c-8.533-8.533-17.92-26.453-17.92-37.547
	c0-37.547,16.213-52.907,32.427-68.267c10.24-9.387,21.333-19.627,27.307-35.84c0.853-0.853,1.707-1.707,2.56-2.56
	c0.853,0,2.56,0,3.413,0c41.813,24.747,61.44,59.733,61.44,105.813c0,11.093-9.387,28.16-17.92,37.547
	C296.96,435.2,295.253,435.2,294.4,435.2z M268.8,409.6c-0.853,0-1.707,0-2.56-0.853c-1.707-0.853-2.56-3.413-1.707-5.12
	l8.533-17.067c0.853-1.707,2.56-2.56,5.12-2.56c1.707,0.853,3.413,2.56,3.413,4.267c0,10.24-8.533,18.773-9.387,20.48
	C271.36,409.6,269.653,409.6,268.8,409.6z M98.133,247.467h-25.6c-2.56,0-4.267-1.707-4.267-4.267s1.707-4.267,4.267-4.267h25.6
	c2.56,0,4.267-1.707,4.267-4.267v-34.133c0-2.56-1.707-4.267-4.267-4.267s-4.267-1.707-4.267-4.267c0-2.56,1.707-4.267,4.267-4.267
	c6.827,0,12.8,5.973,12.8,12.8v34.133C110.933,241.493,104.96,247.467,98.133,247.467z M362.667,196.267h-34.133
	c-2.56,0-4.267-1.707-4.267-4.267c0-2.56,1.707-4.267,4.267-4.267h34.133c2.56,0,4.267,1.707,4.267,4.267
	C366.933,194.56,365.227,196.267,362.667,196.267z M174.933,162.133h-17.067c-2.56,0-4.267-1.707-4.267-4.267
	c0-2.56,1.707-4.267,4.267-4.267h17.067c2.56,0,4.267,1.707,4.267,4.267C179.2,160.427,177.493,162.133,174.933,162.133z"/>
<g>
</g>
<g>
</g>
<g>
</g>
<g>
</g>
<g>
</g>
<g>
</g>
<g>
</g>
<g>
</g>
<g>
</g>
<g>
</g>
<g>
</g>
<g>
</g>
<g>
</g>
<g>
</g>
<g>
</g>
</svg>
