<?xml version="1.0" encoding="iso-8859-1"?>
<!-- Generator: Adobe Illustrator 19.0.0, SVG Export Plug-In . SVG Version: 6.00 Build 0)  -->
<svg version="1.1" id="Capa_1" xmlns="http://www.w3.org/2000/svg" xmlns:xlink="http://www.w3.org/1999/xlink" x="0px" y="0px"
	 viewBox="0 0 60 60" style="enable-background:new 0 0 60 60;" xml:space="preserve">
<rect x="12" y="1" style="fill:#E6E6E6;" width="36" height="22"/>
<g>
	<path style="fill:#6C797A;" d="M36,17h-2c-0.552,0-1,0.447-1,1s0.448,1,1,1h2c0.552,0,1-0.447,1-1S36.552,17,36,17z"/>
	<path style="fill:#6C797A;" d="M30,17h-7c-0.552,0-1,0.447-1,1s0.448,1,1,1h7c0.552,0,1-0.447,1-1S30.552,17,30,17z"/>
	<path style="fill:#6C797A;" d="M18.29,17.29C18.11,17.479,18,17.74,18,18c0,0.27,0.11,0.52,0.29,0.71C18.48,18.89,18.74,19,19,19
		c0.26,0,0.52-0.11,0.71-0.29C19.89,18.52,20,18.26,20,18s-0.11-0.521-0.29-0.71C19.34,16.92,18.66,16.92,18.29,17.29z"/>
</g>
<path style="fill:#38454F;" d="M47.385,59H12.615C11.171,59,10,57.829,10,56.385V39h40v17.385C50,57.829,48.829,59,47.385,59z"/>
<g>
	<path style="fill:#38454F;" d="M2,21c0-0.553-0.448-1-1-1s-1,0.447-1,1v10c0,0.553,0.448,1,1,1s1-0.447,1-1v-4h2v-2H2V21z"/>
	<path style="fill:#38454F;" d="M59,20c-0.553,0-1,0.447-1,1v4h-2v2h2v4c0,0.553,0.447,1,1,1s1-0.447,1-1V21
		C60,20.447,59.553,20,59,20z"/>
</g>
<polygon style="fill:#38454F;" points="7,36 7,34 2,34 2,39 1,39 1,41 2,41 4,41 5,41 5,39 4,39 4,36 "/>
<path style="fill:#AFB6BB;" d="M54.59,23H5.41C4.631,23,4,23.631,4,24.41v3.179C4,28.368,4.631,29,5.41,29h10.016
	c0.776-1.76,2.535-3,4.574-3h20c2.039,0,3.797,1.24,4.574,3H54.59c0.779,0,1.41-0.632,1.41-1.411V24.41
	C56,23.631,55.369,23,54.59,23z"/>
<path style="fill:#262729;" d="M44.574,29c0.443,1.005,0.578,2.172,0.227,3.395C44.175,34.571,42.082,36,39.818,36H20.182
	c-2.264,0-4.358-1.429-4.982-3.605c-0.351-1.223-0.216-2.39,0.227-3.395H7v17c0,1.657,1.343,3,3,3h0V39h40v10h0c1.657,0,3-1.343,3-3
	V29H44.574z"/>
<circle style="fill:#E7ECED;" cx="16" cy="45" r="3"/>
<circle style="fill:#E7ECED;" cx="44" cy="45" r="3"/>
<circle style="fill:#E7ECED;" cx="35" cy="45" r="3"/>
<circle style="fill:#E7ECED;" cx="25" cy="45" r="3"/>
<path style="fill:#E7ECED;" d="M45.212,55H14.788C14.353,55,14,54.647,14,54.212v-2.424C14,51.353,14.353,51,14.788,51h30.424
	C45.647,51,46,51.353,46,51.788v2.424C46,54.647,45.647,55,45.212,55z"/>
<path style="fill:#283238;" d="M45,31c0-2.75-2.25-5-5-5H20c-2.75,0-5,2.25-5,5c0,2.408,1.725,4.432,4,4.898V29c0-0.553,0.448-1,1-1
	s1,0.447,1,1v7h2v-6c0-0.553,0.448-1,1-1s1,0.447,1,1v6h2v-5c0-0.553,0.448-1,1-1s1,0.447,1,1v5h2v-5c0-0.553,0.448-1,1-1
	s1,0.447,1,1v5h2v-6c0-0.553,0.448-1,1-1s1,0.447,1,1v6h2v-7c0-0.553,0.448-1,1-1s1,0.447,1,1v6.898C43.275,35.432,45,33.408,45,31z
	"/>
<path style="fill:#546A79;" d="M20,28c-0.552,0-1,0.447-1,1v6.898C19.323,35.965,19.658,36,20,36h1v-7C21,28.447,20.552,28,20,28z"
	/>
<path style="fill:#546A79;" d="M40,28c-0.552,0-1,0.447-1,1v7h1c0.342,0,0.677-0.035,1-0.102V29C41,28.447,40.552,28,40,28z"/>
<path style="fill:#546A79;" d="M36,29c-0.552,0-1,0.447-1,1v6h2v-6C37,29.447,36.552,29,36,29z"/>
<path style="fill:#546A79;" d="M32,30c-0.552,0-1,0.447-1,1v5h2v-5C33,30.447,32.552,30,32,30z"/>
<path style="fill:#546A79;" d="M28,30c-0.552,0-1,0.447-1,1v5h2v-5C29,30.447,28.552,30,28,30z"/>
<path style="fill:#546A79;" d="M24,29c-0.552,0-1,0.447-1,1v6h2v-6C25,29.447,24.552,29,24,29z"/>
<g>
</g>
<g>
</g>
<g>
</g>
<g>
</g>
<g>
</g>
<g>
</g>
<g>
</g>
<g>
</g>
<g>
</g>
<g>
</g>
<g>
</g>
<g>
</g>
<g>
</g>
<g>
</g>
<g>
</g>
</svg>
